<mxfile host="app.diagrams.net" modified="2022-04-10T09:40:19.693Z" agent="5.0 (Macintosh; Intel Mac OS X 10_15_7) AppleWebKit/537.36 (KHTML, like Gecko) Chrome/100.0.4896.75 Safari/537.36" etag="Tuo0t3Cifkyriy9DVNkM" version="17.4.2" type="github">
  <diagram id="C5RBs43oDa-KdzZeNtuy" name="Page-1">
    <mxGraphModel dx="2547" dy="993" grid="1" gridSize="10" guides="1" tooltips="1" connect="1" arrows="1" fold="1" page="1" pageScale="1" pageWidth="827" pageHeight="1169" math="0" shadow="0">
      <root>
        <mxCell id="WIyWlLk6GJQsqaUBKTNV-0" />
        <mxCell id="WIyWlLk6GJQsqaUBKTNV-1" parent="WIyWlLk6GJQsqaUBKTNV-0" />
        <mxCell id="WIyWlLk6GJQsqaUBKTNV-2" value="" style="rounded=0;html=1;jettySize=auto;orthogonalLoop=1;fontSize=11;endArrow=classic;endFill=1;endSize=8;strokeWidth=1;shadow=0;labelBackgroundColor=none;edgeStyle=orthogonalEdgeStyle;" parent="WIyWlLk6GJQsqaUBKTNV-1" source="WIyWlLk6GJQsqaUBKTNV-3" edge="1">
          <mxGeometry relative="1" as="geometry">
            <mxPoint x="220" y="170" as="targetPoint" />
          </mxGeometry>
        </mxCell>
        <mxCell id="itgekPIhUMw6NAmVeoxD-32" value="自动生成" style="edgeLabel;html=1;align=center;verticalAlign=middle;resizable=0;points=[];" vertex="1" connectable="0" parent="WIyWlLk6GJQsqaUBKTNV-2">
          <mxGeometry x="-0.1684" y="3" relative="1" as="geometry">
            <mxPoint x="-33" y="1" as="offset" />
          </mxGeometry>
        </mxCell>
        <mxCell id="WIyWlLk6GJQsqaUBKTNV-3" value="预警事件发生" style="rounded=1;whiteSpace=wrap;html=1;fontSize=12;glass=0;strokeWidth=1;shadow=0;fillColor=#dae8fc;strokeColor=#6c8ebf;" parent="WIyWlLk6GJQsqaUBKTNV-1" vertex="1">
          <mxGeometry x="160" y="80" width="120" height="40" as="geometry" />
        </mxCell>
        <mxCell id="itgekPIhUMw6NAmVeoxD-34" style="edgeStyle=none;rounded=0;orthogonalLoop=1;jettySize=auto;html=1;entryX=0.5;entryY=0;entryDx=0;entryDy=0;endArrow=classic;endFill=1;" edge="1" parent="WIyWlLk6GJQsqaUBKTNV-1" source="WIyWlLk6GJQsqaUBKTNV-11" target="itgekPIhUMw6NAmVeoxD-2">
          <mxGeometry relative="1" as="geometry" />
        </mxCell>
        <mxCell id="WIyWlLk6GJQsqaUBKTNV-11" value="督办单" style="rounded=1;whiteSpace=wrap;html=1;fontSize=12;glass=0;strokeWidth=1;shadow=0;fillColor=#dae8fc;strokeColor=#6c8ebf;" parent="WIyWlLk6GJQsqaUBKTNV-1" vertex="1">
          <mxGeometry x="160" y="170" width="120" height="40" as="geometry" />
        </mxCell>
        <mxCell id="itgekPIhUMw6NAmVeoxD-35" style="edgeStyle=none;rounded=0;orthogonalLoop=1;jettySize=auto;html=1;entryX=0.5;entryY=0;entryDx=0;entryDy=0;endArrow=classic;endFill=1;" edge="1" parent="WIyWlLk6GJQsqaUBKTNV-1" source="itgekPIhUMw6NAmVeoxD-2" target="itgekPIhUMw6NAmVeoxD-3">
          <mxGeometry relative="1" as="geometry" />
        </mxCell>
        <mxCell id="itgekPIhUMw6NAmVeoxD-2" value="给督办单接收&lt;br style=&quot;font-size: 13px;&quot;&gt;用户发消息" style="rounded=1;whiteSpace=wrap;html=1;fontSize=13;glass=0;strokeWidth=1;shadow=0;fillColor=#dae8fc;strokeColor=#6c8ebf;" vertex="1" parent="WIyWlLk6GJQsqaUBKTNV-1">
          <mxGeometry x="160" y="260" width="120" height="40" as="geometry" />
        </mxCell>
        <mxCell id="itgekPIhUMw6NAmVeoxD-36" style="edgeStyle=none;rounded=0;orthogonalLoop=1;jettySize=auto;html=1;endArrow=classic;endFill=1;" edge="1" parent="WIyWlLk6GJQsqaUBKTNV-1" source="itgekPIhUMw6NAmVeoxD-3" target="itgekPIhUMw6NAmVeoxD-7">
          <mxGeometry relative="1" as="geometry" />
        </mxCell>
        <mxCell id="itgekPIhUMw6NAmVeoxD-3" value="分发下发人" style="rounded=1;whiteSpace=wrap;html=1;fontSize=13;glass=0;strokeWidth=1;shadow=0;fillColor=#dae8fc;strokeColor=#6c8ebf;" vertex="1" parent="WIyWlLk6GJQsqaUBKTNV-1">
          <mxGeometry x="160" y="360" width="120" height="40" as="geometry" />
        </mxCell>
        <mxCell id="itgekPIhUMw6NAmVeoxD-37" style="edgeStyle=none;rounded=0;orthogonalLoop=1;jettySize=auto;html=1;endArrow=classic;endFill=1;" edge="1" parent="WIyWlLk6GJQsqaUBKTNV-1" source="itgekPIhUMw6NAmVeoxD-7" target="itgekPIhUMw6NAmVeoxD-10">
          <mxGeometry relative="1" as="geometry" />
        </mxCell>
        <mxCell id="itgekPIhUMw6NAmVeoxD-7" value="给下发人发消息" style="rounded=1;whiteSpace=wrap;html=1;fontSize=13;glass=0;strokeWidth=1;shadow=0;fillColor=#dae8fc;strokeColor=#6c8ebf;" vertex="1" parent="WIyWlLk6GJQsqaUBKTNV-1">
          <mxGeometry x="160" y="440" width="120" height="40" as="geometry" />
        </mxCell>
        <mxCell id="itgekPIhUMw6NAmVeoxD-39" value="不下发" style="edgeStyle=orthogonalEdgeStyle;rounded=0;orthogonalLoop=1;jettySize=auto;html=1;exitX=0;exitY=0.5;exitDx=0;exitDy=0;entryX=1;entryY=0.5;entryDx=0;entryDy=0;endArrow=classic;endFill=1;" edge="1" parent="WIyWlLk6GJQsqaUBKTNV-1" source="itgekPIhUMw6NAmVeoxD-10" target="itgekPIhUMw6NAmVeoxD-12">
          <mxGeometry x="-0.1111" y="-10" relative="1" as="geometry">
            <mxPoint as="offset" />
          </mxGeometry>
        </mxCell>
        <mxCell id="itgekPIhUMw6NAmVeoxD-40" value="下发" style="edgeStyle=orthogonalEdgeStyle;rounded=0;orthogonalLoop=1;jettySize=auto;html=1;endArrow=classic;endFill=1;" edge="1" parent="WIyWlLk6GJQsqaUBKTNV-1" source="itgekPIhUMw6NAmVeoxD-10" target="itgekPIhUMw6NAmVeoxD-18">
          <mxGeometry x="-0.2" y="20" relative="1" as="geometry">
            <mxPoint as="offset" />
          </mxGeometry>
        </mxCell>
        <mxCell id="itgekPIhUMw6NAmVeoxD-10" value="确认下发" style="rhombus;whiteSpace=wrap;html=1;fillColor=#dae8fc;strokeColor=#6c8ebf;fontSize=13;" vertex="1" parent="WIyWlLk6GJQsqaUBKTNV-1">
          <mxGeometry x="180" y="530" width="80" height="80" as="geometry" />
        </mxCell>
        <mxCell id="itgekPIhUMw6NAmVeoxD-12" value="填写原因" style="rounded=1;whiteSpace=wrap;html=1;fontSize=13;glass=0;strokeWidth=1;shadow=0;fillColor=#dae8fc;strokeColor=#6c8ebf;" vertex="1" parent="WIyWlLk6GJQsqaUBKTNV-1">
          <mxGeometry x="-30" y="550" width="120" height="40" as="geometry" />
        </mxCell>
        <mxCell id="itgekPIhUMw6NAmVeoxD-38" style="edgeStyle=orthogonalEdgeStyle;rounded=0;orthogonalLoop=1;jettySize=auto;html=1;endArrow=classic;endFill=1;" edge="1" parent="WIyWlLk6GJQsqaUBKTNV-1" source="itgekPIhUMw6NAmVeoxD-13" target="itgekPIhUMw6NAmVeoxD-10">
          <mxGeometry relative="1" as="geometry">
            <Array as="points">
              <mxPoint x="30" y="510" />
              <mxPoint x="220" y="510" />
            </Array>
          </mxGeometry>
        </mxCell>
        <mxCell id="itgekPIhUMw6NAmVeoxD-13" value="督办单" style="rounded=1;whiteSpace=wrap;html=1;fontSize=13;glass=0;strokeWidth=1;shadow=0;fillColor=#dae8fc;strokeColor=#6c8ebf;" vertex="1" parent="WIyWlLk6GJQsqaUBKTNV-1">
          <mxGeometry x="-30" y="440" width="120" height="40" as="geometry" />
        </mxCell>
        <mxCell id="itgekPIhUMw6NAmVeoxD-15" value="手工创建" style="edgeStyle=orthogonalEdgeStyle;rounded=0;orthogonalLoop=1;jettySize=auto;html=1;entryX=0.5;entryY=0;entryDx=0;entryDy=0;" edge="1" parent="WIyWlLk6GJQsqaUBKTNV-1" source="itgekPIhUMw6NAmVeoxD-14" target="itgekPIhUMw6NAmVeoxD-13">
          <mxGeometry x="0.3333" y="-30" relative="1" as="geometry">
            <mxPoint as="offset" />
          </mxGeometry>
        </mxCell>
        <mxCell id="itgekPIhUMw6NAmVeoxD-16" value="" style="edgeStyle=orthogonalEdgeStyle;rounded=0;orthogonalLoop=1;jettySize=auto;html=1;" edge="1" parent="WIyWlLk6GJQsqaUBKTNV-1" target="itgekPIhUMw6NAmVeoxD-13">
          <mxGeometry relative="1" as="geometry">
            <mxPoint x="30" y="390" as="sourcePoint" />
          </mxGeometry>
        </mxCell>
        <mxCell id="itgekPIhUMw6NAmVeoxD-17" value="" style="edgeStyle=orthogonalEdgeStyle;rounded=0;orthogonalLoop=1;jettySize=auto;html=1;" edge="1" parent="WIyWlLk6GJQsqaUBKTNV-1" target="itgekPIhUMw6NAmVeoxD-13">
          <mxGeometry relative="1" as="geometry">
            <mxPoint x="30" y="390" as="sourcePoint" />
          </mxGeometry>
        </mxCell>
        <mxCell id="itgekPIhUMw6NAmVeoxD-14" value="用户" style="shape=umlActor;verticalLabelPosition=bottom;verticalAlign=top;html=1;outlineConnect=0;" vertex="1" parent="WIyWlLk6GJQsqaUBKTNV-1">
          <mxGeometry x="15" y="320" width="30" height="40" as="geometry" />
        </mxCell>
        <mxCell id="itgekPIhUMw6NAmVeoxD-41" style="edgeStyle=orthogonalEdgeStyle;rounded=0;orthogonalLoop=1;jettySize=auto;html=1;entryX=0.5;entryY=0;entryDx=0;entryDy=0;endArrow=classic;endFill=1;" edge="1" parent="WIyWlLk6GJQsqaUBKTNV-1" source="itgekPIhUMw6NAmVeoxD-18" target="itgekPIhUMw6NAmVeoxD-19">
          <mxGeometry relative="1" as="geometry" />
        </mxCell>
        <mxCell id="itgekPIhUMw6NAmVeoxD-18" value="授权" style="shape=process;whiteSpace=wrap;html=1;backgroundOutline=1;fillColor=#dae8fc;strokeColor=#6c8ebf;fontSize=13;" vertex="1" parent="WIyWlLk6GJQsqaUBKTNV-1">
          <mxGeometry x="115" y="660" width="210" height="80" as="geometry" />
        </mxCell>
        <mxCell id="itgekPIhUMw6NAmVeoxD-42" style="edgeStyle=orthogonalEdgeStyle;rounded=0;orthogonalLoop=1;jettySize=auto;html=1;exitX=1;exitY=0.5;exitDx=0;exitDy=0;entryX=0.5;entryY=0;entryDx=0;entryDy=0;endArrow=classic;endFill=1;" edge="1" parent="WIyWlLk6GJQsqaUBKTNV-1" source="itgekPIhUMw6NAmVeoxD-19" target="itgekPIhUMw6NAmVeoxD-22">
          <mxGeometry relative="1" as="geometry" />
        </mxCell>
        <mxCell id="itgekPIhUMw6NAmVeoxD-19" value="给直属单位督办&lt;br style=&quot;font-size: 13px;&quot;&gt;接收用户发消息" style="rounded=1;whiteSpace=wrap;html=1;fontSize=13;glass=0;strokeWidth=1;shadow=0;fillColor=#dae8fc;strokeColor=#6c8ebf;" vertex="1" parent="WIyWlLk6GJQsqaUBKTNV-1">
          <mxGeometry x="130" y="780" width="180" height="60" as="geometry" />
        </mxCell>
        <mxCell id="itgekPIhUMw6NAmVeoxD-43" style="edgeStyle=orthogonalEdgeStyle;rounded=0;orthogonalLoop=1;jettySize=auto;html=1;endArrow=classic;endFill=1;" edge="1" parent="WIyWlLk6GJQsqaUBKTNV-1" source="itgekPIhUMw6NAmVeoxD-22" target="itgekPIhUMw6NAmVeoxD-23">
          <mxGeometry relative="1" as="geometry" />
        </mxCell>
        <mxCell id="itgekPIhUMw6NAmVeoxD-22" value="直属单位&lt;br style=&quot;font-size: 13px;&quot;&gt;确认接收" style="rounded=1;whiteSpace=wrap;html=1;fontSize=13;glass=0;strokeWidth=1;shadow=0;fillColor=#dae8fc;strokeColor=#6c8ebf;" vertex="1" parent="WIyWlLk6GJQsqaUBKTNV-1">
          <mxGeometry x="414" y="440" width="120" height="40" as="geometry" />
        </mxCell>
        <mxCell id="itgekPIhUMw6NAmVeoxD-44" style="edgeStyle=orthogonalEdgeStyle;rounded=0;orthogonalLoop=1;jettySize=auto;html=1;entryX=0.5;entryY=0;entryDx=0;entryDy=0;endArrow=classic;endFill=1;" edge="1" parent="WIyWlLk6GJQsqaUBKTNV-1" source="itgekPIhUMw6NAmVeoxD-23" target="itgekPIhUMw6NAmVeoxD-24">
          <mxGeometry relative="1" as="geometry" />
        </mxCell>
        <mxCell id="itgekPIhUMw6NAmVeoxD-23" value="分发办理人" style="rounded=1;whiteSpace=wrap;html=1;fontSize=13;glass=0;strokeWidth=1;shadow=0;fillColor=#dae8fc;strokeColor=#6c8ebf;" vertex="1" parent="WIyWlLk6GJQsqaUBKTNV-1">
          <mxGeometry x="414" y="530" width="120" height="40" as="geometry" />
        </mxCell>
        <mxCell id="itgekPIhUMw6NAmVeoxD-45" style="edgeStyle=orthogonalEdgeStyle;rounded=0;orthogonalLoop=1;jettySize=auto;html=1;endArrow=classic;endFill=1;" edge="1" parent="WIyWlLk6GJQsqaUBKTNV-1" source="itgekPIhUMw6NAmVeoxD-24" target="itgekPIhUMw6NAmVeoxD-25">
          <mxGeometry relative="1" as="geometry" />
        </mxCell>
        <mxCell id="itgekPIhUMw6NAmVeoxD-24" value="发消息&lt;br style=&quot;font-size: 13px;&quot;&gt;给办理人" style="rounded=1;whiteSpace=wrap;html=1;fontSize=13;glass=0;strokeWidth=1;shadow=0;fillColor=#dae8fc;strokeColor=#6c8ebf;" vertex="1" parent="WIyWlLk6GJQsqaUBKTNV-1">
          <mxGeometry x="414" y="625" width="120" height="40" as="geometry" />
        </mxCell>
        <mxCell id="itgekPIhUMw6NAmVeoxD-29" style="edgeStyle=orthogonalEdgeStyle;rounded=0;orthogonalLoop=1;jettySize=auto;html=1;exitX=1;exitY=0.5;exitDx=0;exitDy=0;" edge="1" parent="WIyWlLk6GJQsqaUBKTNV-1" source="itgekPIhUMw6NAmVeoxD-25" target="itgekPIhUMw6NAmVeoxD-26">
          <mxGeometry relative="1" as="geometry" />
        </mxCell>
        <mxCell id="itgekPIhUMw6NAmVeoxD-25" value="办理" style="rounded=1;whiteSpace=wrap;html=1;fontSize=13;glass=0;strokeWidth=1;shadow=0;fillColor=#dae8fc;strokeColor=#6c8ebf;" vertex="1" parent="WIyWlLk6GJQsqaUBKTNV-1">
          <mxGeometry x="414" y="730" width="120" height="40" as="geometry" />
        </mxCell>
        <mxCell id="itgekPIhUMw6NAmVeoxD-47" style="edgeStyle=orthogonalEdgeStyle;rounded=0;orthogonalLoop=1;jettySize=auto;html=1;entryX=0.5;entryY=0;entryDx=0;entryDy=0;endArrow=classic;endFill=1;" edge="1" parent="WIyWlLk6GJQsqaUBKTNV-1" source="itgekPIhUMw6NAmVeoxD-26" target="itgekPIhUMw6NAmVeoxD-25">
          <mxGeometry relative="1" as="geometry">
            <Array as="points">
              <mxPoint x="680" y="690" />
              <mxPoint x="474" y="690" />
            </Array>
          </mxGeometry>
        </mxCell>
        <mxCell id="itgekPIhUMw6NAmVeoxD-48" value="不通过" style="edgeLabel;html=1;align=center;verticalAlign=middle;resizable=0;points=[];" vertex="1" connectable="0" parent="itgekPIhUMw6NAmVeoxD-47">
          <mxGeometry x="-0.1459" y="-1" relative="1" as="geometry">
            <mxPoint y="-9" as="offset" />
          </mxGeometry>
        </mxCell>
        <mxCell id="itgekPIhUMw6NAmVeoxD-49" value="通过" style="edgeStyle=orthogonalEdgeStyle;rounded=0;orthogonalLoop=1;jettySize=auto;html=1;entryX=0;entryY=0.5;entryDx=0;entryDy=0;endArrow=classic;endFill=1;" edge="1" parent="WIyWlLk6GJQsqaUBKTNV-1" source="itgekPIhUMw6NAmVeoxD-26" target="itgekPIhUMw6NAmVeoxD-27">
          <mxGeometry y="10" relative="1" as="geometry">
            <mxPoint as="offset" />
          </mxGeometry>
        </mxCell>
        <mxCell id="itgekPIhUMw6NAmVeoxD-26" value="直属单位&lt;br style=&quot;font-size: 13px;&quot;&gt;审核" style="rhombus;whiteSpace=wrap;html=1;fillColor=#dae8fc;strokeColor=#6c8ebf;fontSize=13;" vertex="1" parent="WIyWlLk6GJQsqaUBKTNV-1">
          <mxGeometry x="640" y="710" width="80" height="80" as="geometry" />
        </mxCell>
        <mxCell id="itgekPIhUMw6NAmVeoxD-50" style="edgeStyle=orthogonalEdgeStyle;rounded=0;orthogonalLoop=1;jettySize=auto;html=1;entryX=0;entryY=0.5;entryDx=0;entryDy=0;endArrow=classic;endFill=1;" edge="1" parent="WIyWlLk6GJQsqaUBKTNV-1" source="itgekPIhUMw6NAmVeoxD-27" target="itgekPIhUMw6NAmVeoxD-28">
          <mxGeometry relative="1" as="geometry" />
        </mxCell>
        <mxCell id="itgekPIhUMw6NAmVeoxD-53" value="通过" style="edgeLabel;html=1;align=center;verticalAlign=middle;resizable=0;points=[];" vertex="1" connectable="0" parent="itgekPIhUMw6NAmVeoxD-50">
          <mxGeometry x="-0.1182" y="1" relative="1" as="geometry">
            <mxPoint x="5" y="-9" as="offset" />
          </mxGeometry>
        </mxCell>
        <mxCell id="itgekPIhUMw6NAmVeoxD-51" style="edgeStyle=orthogonalEdgeStyle;rounded=0;orthogonalLoop=1;jettySize=auto;html=1;entryX=0.5;entryY=0;entryDx=0;entryDy=0;endArrow=classic;endFill=1;" edge="1" parent="WIyWlLk6GJQsqaUBKTNV-1" source="itgekPIhUMw6NAmVeoxD-27" target="itgekPIhUMw6NAmVeoxD-25">
          <mxGeometry relative="1" as="geometry">
            <Array as="points">
              <mxPoint x="840" y="690" />
              <mxPoint x="474" y="690" />
            </Array>
          </mxGeometry>
        </mxCell>
        <mxCell id="itgekPIhUMw6NAmVeoxD-52" value="不通过" style="edgeLabel;html=1;align=center;verticalAlign=middle;resizable=0;points=[];" vertex="1" connectable="0" parent="itgekPIhUMw6NAmVeoxD-51">
          <mxGeometry x="-0.6545" y="1" relative="1" as="geometry">
            <mxPoint x="-26" y="-11" as="offset" />
          </mxGeometry>
        </mxCell>
        <mxCell id="itgekPIhUMw6NAmVeoxD-27" value="督办部门&lt;br style=&quot;font-size: 13px;&quot;&gt;审核" style="rhombus;whiteSpace=wrap;html=1;fillColor=#dae8fc;strokeColor=#6c8ebf;fontSize=13;" vertex="1" parent="WIyWlLk6GJQsqaUBKTNV-1">
          <mxGeometry x="800" y="710" width="80" height="80" as="geometry" />
        </mxCell>
        <mxCell id="itgekPIhUMw6NAmVeoxD-28" value="关闭督办单" style="rounded=1;whiteSpace=wrap;html=1;fontSize=13;glass=0;strokeWidth=1;shadow=0;fillColor=#dae8fc;strokeColor=#6c8ebf;" vertex="1" parent="WIyWlLk6GJQsqaUBKTNV-1">
          <mxGeometry x="960" y="730" width="120" height="40" as="geometry" />
        </mxCell>
      </root>
    </mxGraphModel>
  </diagram>
</mxfile>
